<svg width="64" height="64" xmlns="http://www.w3.org/2000/svg" data-name="Vrstva 1">

 <title>fim-uhk-abb_xs</title>
 <g>
  <title>Layer 1</title>
  <g stroke="null" stroke-width="0" id="svg_11">
   <rect stroke="null" id="svg_1" fill="#009fdf" height="4.00773" width="19.44715" y="34.57795" x="22.28729" class="cls-1"/>
   <rect stroke="null" id="svg_2" fill="#009fdf" height="4.00773" width="19.44715" y="25.41433" x="22.28729" class="cls-1"/>
   <polygon stroke="null" id="svg_3" points="10.445168495178223,37.93577003479004 10.445168495178223,47.576005935668945 16.398820877075195,53.490102767944336 23.63446617126465,53.490102767944336 21.46160125732422,47.576005935668945 16.398820877075195,47.576005935668945 16.398820877075195,37.93577003479004 10.445168495178223,32.0000057220459 16.398820877075195,26.06422996520996 16.398820877075195,16.445669174194336 21.46160125732422,16.445669174194336 23.63446617126465,10.509899139404297 16.398820877075195,10.509899139404297 10.445168495178223,16.445669174194336 10.445168495178223,26.06422996520996 4.49151611328125,32.0000057220459 10.445168495178223,37.93577003479004 "/>
   <polygon stroke="null" id="svg_4" points="47.62290573120117,47.576005935668945 42.53839874267578,47.576005935668945 40.36553192138672,53.490102767944336 47.62290573120117,53.490102767944336 53.55482864379883,47.576005935668945 53.55482864379883,37.93577003479004 59.50848388671875,32.0000057220459 53.55482864379883,26.06422996520996 53.55482864379883,16.445669174194336 47.62290573120117,10.509899139404297 40.36553192138672,10.509899139404297 42.53839874267578,16.445669174194336 47.62290573120117,16.445669174194336 47.62290573120117,26.06422996520996 53.55482864379883,32.0000057220459 47.62290573120117,37.93577003479004 47.62290573120117,47.576005935668945 "/>
  </g>
 </g>
</svg>